<svg width="353" height="60" viewBox="0 0 353 60" fill="none" xmlns="http://www.w3.org/2000/svg">
<g clip-path="url(#clip0_674_3)">
<path fill-rule="evenodd" clip-rule="evenodd" d="M195.652 51C195.652 54.0435 193.304 55.5652 189.826 55.5652H180.957C179.652 55.5652 177.478 55.7391 177.13 58.6957H175.043C174.696 55.7391 172.522 55.5652 171.261 55.5652H162.348C158.87 55.5652 156.522 54.0435 156.522 51V57.8261H117.391V50.4348L97.8261 57.8261L78.2609 50.4348C75.7105 53.0377 72.6664 55.1056 69.3068 56.5173C65.9473 57.929 62.3398 58.6562 58.6957 58.6562C55.0515 58.6562 51.444 57.929 48.0845 56.5173C44.7249 55.1056 41.6808 53.0377 39.1304 50.4348V0H273.913V50.4348L254.348 57.8261L234.783 50.4348C234.783 50.4348 227.826 58.5217 215.435 58.6957H215C202.391 58.6957 195.652 50.4348 195.652 50.4348V51ZM39.1304 0V51C39.1304 54.0435 36.7391 55.5652 33.3043 55.5652H24.3478C23.087 55.5652 20.9565 55.7391 20.5652 58.6957H18.4783C18.087 55.7391 15.9565 55.5652 14.6957 55.5652H5.82609C2.34783 55.5652 0 54.0435 0 51V0H39.1304ZM352.174 0V51C352.174 54.0435 349.783 55.5652 346.348 55.5652H337.391C336.13 55.5652 334 55.7391 333.609 58.6957H331.522C331.13 55.7391 329 55.5652 327.739 55.5652H318.826C315.348 55.5652 313 54.0435 313 51V57.8261H273.87V0H352.13H352.174Z" fill="black"/>
<path fill-rule="evenodd" clip-rule="evenodd" d="M10.4346 41.261H15.8259V28.9566H27.0867V24.0436H15.8259V17.1305H29.565V12.1305H10.4346V41.261ZM61.8694 26.3044H54.0433V17.087H58.7389C61.2607 17.087 63.7389 19.174 63.7389 22.261C63.7389 24.3914 62.9998 25.4349 61.8694 26.3044ZM69.1302 22.5653C69.1302 16.7827 64.5215 12.1305 58.6954 12.1305H48.6954V41.261H54.0433V31.3044H58.6954L63.6954 41.3044H69.5215L63.9998 30.5653C65.4858 29.8159 66.7448 28.6833 67.6467 27.2846C68.5487 25.8858 69.0608 24.2716 69.1302 22.6088M296.652 26.3044H288.826V17.087H293.522C296.043 17.087 298.522 19.174 298.522 22.261C298.522 24.3914 297.782 25.4349 296.652 26.3044ZM303.913 22.5653C303.913 16.7827 299.304 12.1305 293.478 12.1305H283.478V41.261H288.826V31.3044H293.478L298.478 41.3044H304.304L298.782 30.5653C300.268 29.8159 301.527 28.6833 302.429 27.2846C303.331 25.8858 303.843 24.2716 303.913 22.6088M98.2607 36.7827C93.652 36.7827 90.4346 32.087 90.4346 26.9131C90.4346 21.6957 93.652 17.0436 98.2607 17.0436C102.869 17.0436 106.087 21.6957 106.087 26.9131C106.087 32.087 102.869 36.7827 98.2607 36.7827ZM98.2607 11.9131C90.8694 11.9131 84.8694 18.5218 84.8694 26.9131C84.8694 35.261 90.8694 41.9131 98.2607 41.9131C105.652 41.9131 111.652 35.261 111.652 26.9131C111.652 18.5218 105.695 11.9131 98.2607 11.9131ZM165.652 17.1305H173.869V41.261H179.174V17.1305H187.391V12.1305H165.652V17.1305ZM332.435 21.6957C330.913 20.8262 330.391 20.087 330.391 19.087C330.391 18.0001 331.478 16.7392 333.174 16.7392C334.652 16.7392 335.869 17.9566 336.478 18.4783L341.087 16.0436C341.087 16.0436 338.913 11.8262 333.348 11.8262C328.217 11.8262 324.609 15.3479 324.609 19.3044C324.609 23.261 327.174 24.9566 329.826 26.4349L334.652 29.174C336.695 30.3044 337.956 31.4349 337.956 33.087C337.956 35.3479 335.869 36.8262 333.782 36.8262C331.304 36.8262 329.13 35.261 327.304 32.6957L322.522 35.261C323.391 37.0001 326.435 41.7827 333.043 41.7827C338.826 41.7827 343.522 37.8696 343.522 33.0436C343.522 28.7392 341.174 26.5218 337.304 24.3914L332.435 21.6957ZM143.217 31.3914L131.565 12.1305H126.522V41.261H131.565V22.0436L143.217 41.261H148.261V12.1305H143.217V31.3914ZM211.565 28.9566H222.826V24.0436H211.565V17.1305H224.869V12.1305H206.174V41.261H225.304V36.3044H211.565V28.9566ZM250.695 28.9566H261.956V24.0436H250.695V17.1305H264V12.1305H245.304V41.261H264.435V36.3044H250.695V28.9566Z" fill="white"/>
</g>
<defs>
<clipPath id="clip0_674_3">
<rect width="352.174" height="60" fill="white"/>
</clipPath>
</defs>
</svg>
