<svg width="30" height="30" viewBox="0 0 30 30" fill="none" xmlns="http://www.w3.org/2000/svg">
<path d="M23.3837 9.75C23.0995 9.75 22.91 9.9375 22.91 10.2187V11.1094H21.4416V6.375C21.4416 2.85938 18.5521 0 14.9995 0C11.4469 0 8.55739 2.85938 8.55739 6.375V11.1094H7.08897V10.2187C7.08897 9.9375 6.8995 9.75 6.61529 9.75C6.33108 9.75 6.1416 9.9375 6.1416 10.2187V11.5781V14.7188C6.1416 18.8906 9.17318 22.5 13.2942 23.2969V27.2813H11.4942C11.3048 27.2813 11.1153 27.375 11.0679 27.5625L10.31 29.3437C10.2627 29.4844 10.2627 29.6719 10.3574 29.7656C10.4521 29.9063 10.5942 29.9531 10.7363 29.9531H19.2627C19.4048 29.9531 19.5469 29.8594 19.6416 29.7656C19.7363 29.625 19.7363 29.4844 19.689 29.3437L18.9311 27.5625C18.8363 27.375 18.6942 27.2813 18.5048 27.2813H16.7048V23.2969C20.8258 22.5 23.8574 18.8906 23.8574 14.7188V10.2187C23.8574 9.98437 23.6205 9.75 23.3837 9.75ZM14.9995 0.9375C17.8416 0.9375 20.21 3.14063 20.4469 5.90625H17.9837C17.6995 5.90625 17.51 6.09375 17.51 6.375C17.51 6.65625 17.6995 6.84375 17.9837 6.84375H20.4942V7.96875H17.9837C17.6995 7.96875 17.51 8.15625 17.51 8.4375C17.51 8.71875 17.6995 8.90625 17.9837 8.90625H20.4942V10.0781H17.9837C17.6995 10.0781 17.51 10.2656 17.51 10.5469C17.51 10.8281 17.6995 11.0156 17.9837 11.0156H20.4942V12.1875H17.9837C17.6995 12.1875 17.51 12.375 17.51 12.6562C17.51 12.9375 17.6995 13.125 17.9837 13.125H20.4942V14.2969H17.9837C17.6995 14.2969 17.51 14.4844 17.51 14.7656C17.51 15.0469 17.6995 15.2344 17.9837 15.2344H20.4469C20.21 17.9531 17.8416 20.1094 14.9995 20.1094C12.1574 20.1094 9.78897 17.9062 9.55213 15.1406H12.0153C12.2995 15.1406 12.489 14.9531 12.489 14.6719C12.489 14.3906 12.2995 14.2031 12.0153 14.2031H9.50476V13.0312H12.0153C12.2995 13.0312 12.489 12.8437 12.489 12.5625C12.489 12.2812 12.2995 12.0937 12.0153 12.0937H9.50476V10.9219H12.0153C12.2995 10.9219 12.489 10.7344 12.489 10.4531C12.489 10.1719 12.2995 9.98437 12.0153 9.98437H9.50476V8.90625H12.0153C12.2995 8.90625 12.489 8.71875 12.489 8.4375C12.489 8.15625 12.2995 7.96875 12.0153 7.96875H9.50476V6.79688H12.0153C12.2995 6.79688 12.489 6.60938 12.489 6.32812C12.489 6.04687 12.2995 5.85938 12.0153 5.85938H9.55213C9.78897 3.14062 12.1574 0.9375 14.9995 0.9375ZM18.5048 29.0625H11.4942L11.8258 28.2188C12.1574 28.2188 18.2679 28.2188 18.1732 28.2188L18.5048 29.0625ZM14.2416 27.2813V23.4375C14.7153 23.4844 15.2363 23.4844 15.71 23.4375V27.2813H14.2416ZM15.1416 22.5469C10.6416 22.6406 7.08897 18.9844 7.08897 14.7188V12.0469H8.55739V14.7188C8.55739 18.2344 11.4469 21.0938 14.9995 21.0938C18.5521 21.0938 21.4416 18.2344 21.4416 14.7188V12.0469H22.91V14.7188C22.91 18.8906 19.4995 22.4531 15.1416 22.5469Z" fill="black"/>
</svg>
