<?xml version="1.0" encoding="UTF-8"?>
<svg xmlns="http://www.w3.org/2000/svg" xmlns:xlink="http://www.w3.org/1999/xlink" width="0" height="0">
<symbol id="calendar" width="30" height="30" viewBox="0 0 30 30" fill="none">
<g clip-path="url(#clip0_2146_3482)">
<path d="M27.5 5H25V2.5C25 2.00272 24.8025 1.52581 24.4508 1.17417C24.0992 0.822544 23.6223 0.625 23.125 0.625C22.6277 0.625 22.1508 0.822544 21.7992 1.17417C21.4475 1.52581 21.25 2.00272 21.25 2.5V5H8.75V2.5C8.75 2.00272 8.55246 1.52581 8.20083 1.17417C7.84919 0.822544 7.37228 0.625 6.875 0.625C6.37772 0.625 5.90081 0.822544 5.54917 1.17417C5.19754 1.52581 5 2.00272 5 2.5V5H2.5C2.00272 5 1.52581 5.19754 1.17417 5.54917C0.822544 5.90081 0.625 6.37772 0.625 6.875V27.5C0.625 27.9973 0.822544 28.4742 1.17417 28.8258C1.52581 29.1775 2.00272 29.375 2.5 29.375H27.5C27.9973 29.375 28.4742 29.1775 28.8258 28.8258C29.1775 28.4742 29.375 27.9973 29.375 27.5V6.875C29.375 6.37772 29.1775 5.90081 28.8258 5.54917C28.4742 5.19754 27.9973 5 27.5 5ZM22.5 2.5C22.5 2.33424 22.5658 2.17527 22.6831 2.05806C22.8003 1.94085 22.9592 1.875 23.125 1.875C23.2908 1.875 23.4497 1.94085 23.5669 2.05806C23.6842 2.17527 23.75 2.33424 23.75 2.5V7.5C23.75 7.66576 23.6842 7.82473 23.5669 7.94194C23.4497 8.05915 23.2908 8.125 23.125 8.125C22.9592 8.125 22.8003 8.05915 22.6831 7.94194C22.5658 7.82473 22.5 7.66576 22.5 7.5V2.5ZM6.25 2.5C6.25 2.33424 6.31585 2.17527 6.43306 2.05806C6.55027 1.94085 6.70924 1.875 6.875 1.875C7.04076 1.875 7.19973 1.94085 7.31694 2.05806C7.43415 2.17527 7.5 2.33424 7.5 2.5V7.5C7.5 7.66576 7.43415 7.82473 7.31694 7.94194C7.19973 8.05915 7.04076 8.125 6.875 8.125C6.70924 8.125 6.55027 8.05915 6.43306 7.94194C6.31585 7.82473 6.25 7.66576 6.25 7.5V2.5ZM27.5 28.125H2.5C2.33424 28.125 2.17527 28.0592 2.05806 27.9419C1.94085 27.8247 1.875 27.6658 1.875 27.5V6.875C1.875 6.70924 1.94085 6.55027 2.05806 6.43306C2.17527 6.31585 2.33424 6.25 2.5 6.25H5V7.5C5 7.99728 5.19754 8.47419 5.54917 8.82583C5.90081 9.17746 6.37772 9.375 6.875 9.375C7.37228 9.375 7.84919 9.17746 8.20083 8.82583C8.55246 8.47419 8.75 7.99728 8.75 7.5V6.25H21.25V7.5C21.25 7.99728 21.4475 8.47419 21.7992 8.82583C22.1508 9.17746 22.6277 9.375 23.125 9.375C23.6223 9.375 24.0992 9.17746 24.4508 8.82583C24.8025 8.47419 25 7.99728 25 7.5V6.25H27.5C27.6658 6.25 27.8247 6.31585 27.9419 6.43306C28.0592 6.55027 28.125 6.70924 28.125 6.875V10.3125H5.625C5.45924 10.3125 5.30027 10.3783 5.18306 10.4956C5.06585 10.6128 5 10.7717 5 10.9375C5 11.1033 5.06585 11.2622 5.18306 11.3794C5.30027 11.4967 5.45924 11.5625 5.625 11.5625H28.125V27.5C28.125 27.6658 28.0592 27.8247 27.9419 27.9419C27.8247 28.0592 27.6658 28.125 27.5 28.125Z" fill="#222222"/>
<path d="M6.5625 14.375H4.6875C4.35598 14.375 4.03804 14.5067 3.80362 14.7411C3.5692 14.9755 3.4375 15.2935 3.4375 15.625V17.5C3.4375 17.8315 3.5692 18.1495 3.80362 18.3839C4.03804 18.6183 4.35598 18.75 4.6875 18.75H6.5625C6.89402 18.75 7.21196 18.6183 7.44638 18.3839C7.6808 18.1495 7.8125 17.8315 7.8125 17.5V15.625C7.8125 15.2935 7.6808 14.9755 7.44638 14.7411C7.21196 14.5067 6.89402 14.375 6.5625 14.375ZM4.6875 17.5V15.625H6.5625V17.5H4.6875Z" fill="#222222"/>
<path d="M6.5625 20.625H4.6875C4.35598 20.625 4.03804 20.7567 3.80362 20.9911C3.5692 21.2255 3.4375 21.5435 3.4375 21.875V23.75C3.4375 24.0815 3.5692 24.3995 3.80362 24.6339C4.03804 24.8683 4.35598 25 4.6875 25H6.5625C6.89402 25 7.21196 24.8683 7.44638 24.6339C7.6808 24.3995 7.8125 24.0815 7.8125 23.75V21.875C7.8125 21.5435 7.6808 21.2255 7.44638 20.9911C7.21196 20.7567 6.89402 20.625 6.5625 20.625ZM4.6875 23.75V21.875H6.5625V23.75H4.6875Z" fill="#222222"/>
<path d="M25.3125 14.375H23.4375C23.106 14.375 22.788 14.5067 22.5536 14.7411C22.3192 14.9755 22.1875 15.2935 22.1875 15.625V23.75C22.1875 24.0815 22.3192 24.3995 22.5536 24.6339C22.788 24.8683 23.106 25 23.4375 25H25.3125C25.644 25 25.962 24.8683 26.1964 24.6339C26.4308 24.3995 26.5625 24.0815 26.5625 23.75V15.625C26.5625 15.2935 26.4308 14.9755 26.1964 14.7411C25.962 14.5067 25.644 14.375 25.3125 14.375ZM23.4375 23.75V15.625H25.3125V23.75H23.4375Z" fill="#222222"/>
<path d="M12.8125 14.375H10.9375C10.606 14.375 10.288 14.5067 10.0536 14.7411C9.8192 14.9755 9.6875 15.2935 9.6875 15.625V17.5C9.6875 17.8315 9.8192 18.1495 10.0536 18.3839C10.288 18.6183 10.606 18.75 10.9375 18.75H12.8125C13.144 18.75 13.462 18.6183 13.6964 18.3839C13.9308 18.1495 14.0625 17.8315 14.0625 17.5V15.625C14.0625 15.2935 13.9308 14.9755 13.6964 14.7411C13.462 14.5067 13.144 14.375 12.8125 14.375ZM10.9375 17.5V15.625H12.8125V17.5H10.9375Z" fill="#222222"/>
<path d="M12.8125 20.625H10.9375C10.606 20.625 10.288 20.7567 10.0536 20.9911C9.8192 21.2255 9.6875 21.5435 9.6875 21.875V23.75C9.6875 24.0815 9.8192 24.3995 10.0536 24.6339C10.288 24.8683 10.606 25 10.9375 25H12.8125C13.144 25 13.462 24.8683 13.6964 24.6339C13.9308 24.3995 14.0625 24.0815 14.0625 23.75V21.875C14.0625 21.5435 13.9308 21.2255 13.6964 20.9911C13.462 20.7567 13.144 20.625 12.8125 20.625ZM10.9375 23.75V21.875H12.8125V23.75H10.9375Z" fill="#222222"/>
<path d="M19.0625 14.375H17.1875C16.856 14.375 16.538 14.5067 16.3036 14.7411C16.0692 14.9755 15.9375 15.2935 15.9375 15.625V17.5C15.9375 17.8315 16.0692 18.1495 16.3036 18.3839C16.538 18.6183 16.856 18.75 17.1875 18.75H19.0625C19.394 18.75 19.712 18.6183 19.9464 18.3839C20.1808 18.1495 20.3125 17.8315 20.3125 17.5V15.625C20.3125 15.2935 20.1808 14.9755 19.9464 14.7411C19.712 14.5067 19.394 14.375 19.0625 14.375ZM17.1875 17.5V15.625H19.0625V17.5H17.1875Z" fill="#222222"/>
<path d="M19.0625 20.625H17.1875C16.856 20.625 16.538 20.7567 16.3036 20.9911C16.0692 21.2255 15.9375 21.5435 15.9375 21.875V23.75C15.9375 24.0815 16.0692 24.3995 16.3036 24.6339C16.538 24.8683 16.856 25 17.1875 25H19.0625C19.394 25 19.712 24.8683 19.9464 24.6339C20.1808 24.3995 20.3125 24.0815 20.3125 23.75V21.875C20.3125 21.5435 20.1808 21.2255 19.9464 20.9911C19.712 20.7567 19.394 20.625 19.0625 20.625ZM17.1875 23.75V21.875H19.0625V23.75H17.1875Z" fill="#222222"/>
</g>
<defs>
<clipPath>
<rect width="30" height="30" fill="white"/>
</clipPath>
</defs>
</symbol>

<symbol id="logo" width="353" height="60" viewBox="0 0 353 60" fill="none">
<g clip-path="url(#clip0_674_3)">
<path fill-rule="evenodd" clip-rule="evenodd" d="M195.652 51C195.652 54.0435 193.304 55.5652 189.826 55.5652H180.957C179.652 55.5652 177.478 55.7391 177.13 58.6957H175.043C174.696 55.7391 172.522 55.5652 171.261 55.5652H162.348C158.87 55.5652 156.522 54.0435 156.522 51V57.8261H117.391V50.4348L97.8261 57.8261L78.2609 50.4348C75.7105 53.0377 72.6664 55.1056 69.3068 56.5173C65.9473 57.929 62.3398 58.6562 58.6957 58.6562C55.0515 58.6562 51.444 57.929 48.0845 56.5173C44.7249 55.1056 41.6808 53.0377 39.1304 50.4348V0H273.913V50.4348L254.348 57.8261L234.783 50.4348C234.783 50.4348 227.826 58.5217 215.435 58.6957H215C202.391 58.6957 195.652 50.4348 195.652 50.4348V51ZM39.1304 0V51C39.1304 54.0435 36.7391 55.5652 33.3043 55.5652H24.3478C23.087 55.5652 20.9565 55.7391 20.5652 58.6957H18.4783C18.087 55.7391 15.9565 55.5652 14.6957 55.5652H5.82609C2.34783 55.5652 0 54.0435 0 51V0H39.1304ZM352.174 0V51C352.174 54.0435 349.783 55.5652 346.348 55.5652H337.391C336.13 55.5652 334 55.7391 333.609 58.6957H331.522C331.13 55.7391 329 55.5652 327.739 55.5652H318.826C315.348 55.5652 313 54.0435 313 51V57.8261H273.87V0H352.13H352.174Z" fill="black"/>
<path fill-rule="evenodd" clip-rule="evenodd" d="M10.4346 41.261H15.8259V28.9566H27.0867V24.0436H15.8259V17.1305H29.565V12.1305H10.4346V41.261ZM61.8694 26.3044H54.0433V17.087H58.7389C61.2607 17.087 63.7389 19.174 63.7389 22.261C63.7389 24.3914 62.9998 25.4349 61.8694 26.3044ZM69.1302 22.5653C69.1302 16.7827 64.5215 12.1305 58.6954 12.1305H48.6954V41.261H54.0433V31.3044H58.6954L63.6954 41.3044H69.5215L63.9998 30.5653C65.4858 29.8159 66.7448 28.6833 67.6467 27.2846C68.5487 25.8858 69.0608 24.2716 69.1302 22.6088M296.652 26.3044H288.826V17.087H293.522C296.043 17.087 298.522 19.174 298.522 22.261C298.522 24.3914 297.782 25.4349 296.652 26.3044ZM303.913 22.5653C303.913 16.7827 299.304 12.1305 293.478 12.1305H283.478V41.261H288.826V31.3044H293.478L298.478 41.3044H304.304L298.782 30.5653C300.268 29.8159 301.527 28.6833 302.429 27.2846C303.331 25.8858 303.843 24.2716 303.913 22.6088M98.2607 36.7827C93.652 36.7827 90.4346 32.087 90.4346 26.9131C90.4346 21.6957 93.652 17.0436 98.2607 17.0436C102.869 17.0436 106.087 21.6957 106.087 26.9131C106.087 32.087 102.869 36.7827 98.2607 36.7827ZM98.2607 11.9131C90.8694 11.9131 84.8694 18.5218 84.8694 26.9131C84.8694 35.261 90.8694 41.9131 98.2607 41.9131C105.652 41.9131 111.652 35.261 111.652 26.9131C111.652 18.5218 105.695 11.9131 98.2607 11.9131ZM165.652 17.1305H173.869V41.261H179.174V17.1305H187.391V12.1305H165.652V17.1305ZM332.435 21.6957C330.913 20.8262 330.391 20.087 330.391 19.087C330.391 18.0001 331.478 16.7392 333.174 16.7392C334.652 16.7392 335.869 17.9566 336.478 18.4783L341.087 16.0436C341.087 16.0436 338.913 11.8262 333.348 11.8262C328.217 11.8262 324.609 15.3479 324.609 19.3044C324.609 23.261 327.174 24.9566 329.826 26.4349L334.652 29.174C336.695 30.3044 337.956 31.4349 337.956 33.087C337.956 35.3479 335.869 36.8262 333.782 36.8262C331.304 36.8262 329.13 35.261 327.304 32.6957L322.522 35.261C323.391 37.0001 326.435 41.7827 333.043 41.7827C338.826 41.7827 343.522 37.8696 343.522 33.0436C343.522 28.7392 341.174 26.5218 337.304 24.3914L332.435 21.6957ZM143.217 31.3914L131.565 12.1305H126.522V41.261H131.565V22.0436L143.217 41.261H148.261V12.1305H143.217V31.3914ZM211.565 28.9566H222.826V24.0436H211.565V17.1305H224.869V12.1305H206.174V41.261H225.304V36.3044H211.565V28.9566ZM250.695 28.9566H261.956V24.0436H250.695V17.1305H264V12.1305H245.304V41.261H264.435V36.3044H250.695V28.9566Z" fill="white"/>
</g>
<defs>
<clipPath>
<rect width="352.174" height="60" fill="white"/>
</clipPath>
</defs>
</symbol>

</svg>
